<?xml version="1.0" encoding="UTF-8"?>
<svg version="1.1" xmlns="http://www.w3.org/2000/svg" width="413" height="604">
<path d="M0 0 C4.21174794 2.84750785 5.24674516 6.95318778 6.25 11.75 C6.99765625 11.65460937 7.7453125 11.55921875 8.515625 11.4609375 C9.50046875 11.35007812 10.4853125 11.23921875 11.5 11.125 C12.96179688 10.95097656 12.96179688 10.95097656 14.453125 10.7734375 C17.38429393 10.74887463 18.79528964 11.2187283 21.25 12.75 C21.25 13.74 21.25 14.73 21.25 15.75 C16.17928099 16.46167986 11.36791642 16.85662326 6.25 16.75 C6.55541204 23.84819717 6.83723829 29.41201397 10.25 35.75 C9.53959308 38.23642421 8.72444129 39.35463226 6.75 41 C5.04290632 42.9916093 4.84183434 44.15325327 4.3125 46.6875 C3.42087951 50.51374541 2.67493908 52.5237896 -0.75 54.75 C-2.45003873 55.10486245 -4.16011573 55.41321736 -5.875 55.6875 C-9.74809233 56.22518284 -9.74809233 56.22518284 -12.4375 58.875 C-13.20811241 65.96463421 -12.04064713 70.11086377 -7.75 75.75 C-4.43657768 80.16789643 -2.88515545 84.09304472 -1.55859375 89.3828125 C-0.67895089 91.95799885 0.60824227 93.60519672 2.25 95.75 C2.125 97.9375 2.125 97.9375 1.25 99.75 C0.26 100.08 -0.73 100.41 -1.75 100.75 C-1.09 101.08 -0.43 101.41 0.25 101.75 C0.25 102.41 0.25 103.07 0.25 103.75 C0.91 104.08 1.57 104.41 2.25 104.75 C1.7446875 105.03230469 1.239375 105.31460938 0.71875 105.60546875 C-1.60113609 107.17507422 -3.12101522 108.45145757 -4.75 110.75 C-5.37003073 115.14231851 -5.16189925 119.34333182 -4.75 123.75 C5.03264757 123.27279768 14.58696657 122.45426788 24.25 120.75 C24.10691406 119.19539063 24.10691406 119.19539063 23.9609375 117.609375 C23.84835594 116.23963271 23.73641012 114.86983807 23.625 113.5 C23.56054688 112.81808594 23.49609375 112.13617188 23.4296875 111.43359375 C23.12506456 107.51157338 23.27159209 105.13008436 25.25 101.75 C25.66207408 99.42716642 25.66207408 99.42716642 25.8125 97.0625 C26.15035587 92.84964413 26.15035587 92.84964413 27.25 91.75 C29.92058851 91.60884839 32.57432238 91.70752893 35.25 91.75 C36.054375 93.5134375 36.054375 93.5134375 36.875 95.3125 C38.35090632 98.2799032 39.90063626 100.6723463 42.125 103.125 C48.36335774 110.01417877 52.68455597 117.44774964 52.6015625 126.83984375 C51.95946295 132.15500114 50.00334027 137.17076039 47.25 141.75 C43.30691515 144.49231004 38.87873839 144.45156836 34.25 143.75 C32.22048465 142.46203834 30.21498322 141.13442 28.25 139.75 C24.79802643 140.13863044 21.76680783 141.22410409 18.5625 142.52734375 C17.69882812 142.87603516 16.83515625 143.22472656 15.9453125 143.58398438 C14.61113281 144.13022461 14.61113281 144.13022461 13.25 144.6875 C12.36054688 145.04779297 11.47109375 145.40808594 10.5546875 145.77929688 C8.89372467 146.45235868 7.23347991 147.1271974 5.57421875 147.80444336 C3.13676504 148.79606712 0.69323454 149.77270618 -1.75 150.75 C-1.42 163.29 -1.09 175.83 -0.75 188.75 C-4.215 189.74 -4.215 189.74 -7.75 190.75 C-6.3528151 204.18675689 -1.29091217 216.31740713 4.23925781 228.50878906 C19.01087181 261.26323749 19.01087181 261.26323749 20 275.75 C20.87158759 287.64467859 25.53547884 297.92285831 30.25 308.75 C30.9715554 310.46421174 31.69167516 312.1790287 32.41015625 313.89453125 C35.44317241 321.03095501 38.47604598 327.85597483 43.12109375 334.12109375 C44.25 335.75 44.25 335.75 45.25 338.75 C65.16101033 343.26622338 65.16101033 343.26622338 85.25 341.75 C89.85247433 341.3608477 93.97807754 341.31754636 98.375 342.8125 C100.25 344.75 100.25 344.75 100.5625 348.4375 C100.459375 349.530625 100.35625 350.62375 100.25 351.75 C99.59 351.75 98.93 351.75 98.25 351.75 C98.00894531 352.48992187 97.76789063 353.22984375 97.51953125 353.9921875 C96.0776066 357.12449151 94.54311643 358.64161449 91.9375 360.875 C91.17824219 361.53757812 90.41898437 362.20015625 89.63671875 362.8828125 C83.46849939 367.70835891 77.1577751 370.24423594 69.25 369.75 C69.25 370.41 69.25 371.07 69.25 371.75 C67.93 371.75 66.61 371.75 65.25 371.75 C65.58 372.41 65.91 373.07 66.25 373.75 C100.57 374.08 134.89 374.41 170.25 374.75 C170.25 377.06 170.25 379.37 170.25 381.75 C156.39 381.75 142.53 381.75 128.25 381.75 C127.92 383.4 127.59 385.05 127.25 386.75 C126.59 387.08 125.93 387.41 125.25 387.75 C124.48787118 389.52188501 124.48787118 389.52188501 123.91796875 391.703125 C123.67626953 392.55261719 123.43457031 393.40210938 123.18554688 394.27734375 C122.93869141 395.17582031 122.69183594 396.07429688 122.4375 397 C122.20224609 397.82113281 121.96699219 398.64226562 121.72460938 399.48828125 C119.69523845 406.72157709 117.97635971 414.02406355 116.25163269 421.33428955 C114.72394494 427.79718795 113.14733654 434.24615299 111.53125 440.6875 C111.30299026 441.59731628 111.07473053 442.50713257 110.83955383 443.44451904 C109.9119014 447.13688081 108.9820341 450.82868335 108.05224609 454.52050781 C105.4721414 464.77222023 102.92127173 475.02941071 100.46875 485.3125 C100.25988159 486.18720947 100.05101318 487.06191895 99.83581543 487.96313477 C97.95266636 495.88461022 97.95266636 495.88461022 96.8125 503.9375 C96.25 507.75 96.25 507.75 94.25 509.75 C90.2615994 510.14482489 86.2512724 509.88766864 82.25 509.75 C80.99574219 509.72035156 79.74148438 509.69070313 78.44921875 509.66015625 C77.20785156 509.60730469 75.96648437 509.55445313 74.6875 509.5 C73.53121094 509.45359375 72.37492187 509.4071875 71.18359375 509.359375 C68.25 508.75 68.25 508.75 66.56640625 507.08422852 C64.87299479 504.08150097 65.04947333 502.21662665 65.25390625 498.79296875 C65.41171606 491.76210084 64.10246389 485.7918272 62.1875 479.0625 C61.87675537 477.91998779 61.56601074 476.77747559 61.24584961 475.6003418 C60.59341878 473.20569297 59.934231 470.81287563 59.26855469 468.421875 C57.89861868 463.48327541 56.57759914 458.53203067 55.25415039 453.58081055 C53.93024528 448.63427267 52.59128016 443.69185034 51.25 438.75 C48.23832953 444.9782771 46.83974789 451.32397523 45.375 458.0625 C43.43668407 466.73932143 41.38314517 475.34081385 38.89892578 483.87817383 C35.93341311 492.60115697 35.93341311 492.60115697 35.875 501.5 C36.25 503.75 36.25 503.75 34.68066406 506.36010742 C32.25 508.75 32.25 508.75 29.22558594 509.31762695 C28.07348633 509.29144287 26.92138672 509.26525879 25.734375 509.23828125 C24.48398437 509.22216797 23.23359375 509.20605469 21.9453125 509.18945312 C19.99238281 509.12661133 19.99238281 509.12661133 18 509.0625 C16.68257813 509.03994141 15.36515625 509.01738281 14.0078125 508.99414062 C10.75406596 508.93519594 7.50260329 508.85295053 4.25 508.75 C2.75702788 505.76405576 3.13244772 503.04146376 3.25 499.75 C3.58 499.09 3.91 498.43 4.25 497.75 C3.88948226 495.48713657 3.88948226 495.48713657 3.17578125 492.90234375 C2.92231934 491.91290771 2.66885742 490.92347168 2.40771484 489.90405273 C2.12879395 488.84259033 1.84987305 487.78112793 1.5625 486.6875 C0.99770838 484.4898374 0.43391078 482.29191911 -0.12890625 480.09375 C-0.40750488 479.0109375 -0.68610352 477.928125 -0.97314453 476.8125 C-2.29775063 471.59067132 -3.49775747 466.34197796 -4.6953125 461.08984375 C-6.22865451 454.60537201 -8.01814185 448.18365397 -9.75 441.75 C-10.73146934 438.0929158 -11.71220379 434.43563725 -12.69189453 430.77807617 C-13.19802035 428.88922651 -13.7042279 427.00039763 -14.21282959 425.11221313 C-16.193428 417.75831409 -18.09283853 410.39902396 -19.78466797 402.97265625 C-21.89253304 393.01064867 -21.89253304 393.01064867 -26.52734375 384.1171875 C-31.80227291 380.87250348 -38.75371046 381.5719629 -44.75 381.75 C-45.03875 382.69875 -45.3275 383.6475 -45.625 384.625 C-46.75 387.75 -46.75 387.75 -48.75 389.75 C-49.06198931 391.82742881 -49.06198931 391.82742881 -49.02415466 394.25350952 C-49.03911736 395.67516167 -49.03911736 395.67516167 -49.05438232 397.12553406 C-49.055047 398.16869278 -49.05571167 399.2118515 -49.05639648 400.28662109 C-49.06888176 401.93065163 -49.06888176 401.93065163 -49.08161926 403.6078949 C-49.10579884 407.24644478 -49.11450109 410.88481569 -49.12109375 414.5234375 C-49.13005389 417.04448503 -49.13917561 419.56553199 -49.14845276 422.08657837 C-49.1649669 427.37772247 -49.17268054 432.66879908 -49.17553711 437.95996094 C-49.17917223 444.07563037 -49.20906223 450.19079787 -49.25094169 456.30631387 C-49.28980939 462.18814822 -49.30112953 468.0698316 -49.30226326 473.9518013 C-49.30647858 476.4549189 -49.31896494 478.95803642 -49.33978081 481.46107101 C-49.36655703 484.95935829 -49.3619097 488.45625334 -49.34936523 491.95458984 C-49.37161667 493.51325523 -49.37161667 493.51325523 -49.39431763 495.10340881 C-49.47295872 500.82946389 -49.47295872 500.82946389 -46.21253967 505.29971313 C-45.39990158 505.7783078 -44.58726349 506.25690247 -43.75 506.75 C-43.75 507.41 -43.75 508.07 -43.75 508.75 C-43.16347656 509.01425781 -42.57695312 509.27851562 -41.97265625 509.55078125 C-39.67028969 510.79300714 -38.08525385 512.14631548 -36.1875 513.9375 C-29.32914506 520.05510152 -20.26355659 527.28851476 -10.71484375 527.875 C-4.64658448 527.52257841 0.57123059 525.10294807 6.140625 522.828125 C10.13014658 521.44482355 13.08226019 521.34139806 17.25 521.75 C17.80838429 524.54192144 18.28259024 526.93094419 18.25 529.75 C16.625 531.9375 16.625 531.9375 14.25 533.75 C13.5075 534.513125 12.765 535.27625 12 536.0625 C2.02563414 545.81017572 -5.80051062 551.08507223 -20.04931641 551.20532227 C-32.82439368 550.91893028 -43.81461182 545.44010272 -53.75 537.75 C-59.55734422 534.0502521 -64.68478225 531.54382302 -71.63671875 531.37109375 C-72.73951172 531.33693359 -73.84230469 531.30277344 -74.97851562 531.26757812 C-76.11998047 531.24115234 -77.26144531 531.21472656 -78.4375 531.1875 C-80.71234926 531.12773593 -82.98710193 531.06413214 -85.26171875 530.99609375 C-86.26678467 530.97216553 -87.27185059 530.9482373 -88.30737305 530.92358398 C-90.75 530.75 -90.75 530.75 -92.75 529.75 C-93 527.0625 -93 527.0625 -92.75 523.75 C-92.09610291 523.11451736 -91.44220581 522.47903473 -90.76849365 521.82429504 C-87.56001897 516.93758271 -88.18006871 511.97047428 -88.20410156 506.2487793 C-88.18859505 504.34573784 -88.18859505 504.34573784 -88.17277527 502.4042511 C-88.14494224 498.93349645 -88.14150996 495.46309834 -88.14249516 491.9922483 C-88.13936369 488.36200482 -88.11374067 484.73192137 -88.09051514 481.10176086 C-88.04996936 474.23123183 -88.02961783 467.36079768 -88.01654124 460.49016744 C-88.00066633 452.66665701 -87.96224869 444.84330794 -87.92194796 437.01989114 C-87.83956853 420.92997383 -87.78546428 404.84009056 -87.75 388.75 C-88.39453125 388.46382813 -89.0390625 388.17765625 -89.703125 387.8828125 C-91.75 386.75 -91.75 386.75 -92.5 384.625 C-92.5825 384.00625 -92.665 383.3875 -92.75 382.75 C-95.06 382.42 -97.37 382.09 -99.75 381.75 C-99.75 395.28 -99.75 408.81 -99.75 422.75 C-102.72 422.75 -105.69 422.75 -108.75 422.75 C-110.7385299 418.8524814 -112.67208262 414.95480625 -114.43359375 410.94921875 C-114.73257568 410.27963135 -115.03155762 409.61004395 -115.33959961 408.92016602 C-115.94071493 407.56979244 -116.53161259 406.21481837 -117.11157227 404.85522461 C-118.33299047 402.13373368 -119.28299003 400.09284462 -121.71875 398.3046875 C-124.04218134 397.57437911 -124.04218134 397.57437911 -127.75 397.75 C-128.52316631 400.50082387 -128.87953575 402.95632851 -128.89717102 405.81066895 C-128.90432632 406.6097316 -128.91148163 407.40879425 -128.91885376 408.23207092 C-128.92154266 409.0997258 -128.92423157 409.96738068 -128.92700195 410.86132812 C-128.93357315 411.78207626 -128.94014435 412.7028244 -128.94691467 413.651474 C-128.96660774 416.69473351 -128.97829837 419.73794389 -128.98828125 422.78125 C-128.99235678 423.82068253 -128.9964323 424.86011505 -129.00063133 425.93104553 C-129.02147013 431.42749838 -129.0357841 436.92392638 -129.04516602 442.42041016 C-129.05625539 448.1035615 -129.0906907 453.78632399 -129.13033772 459.46933746 C-129.15643758 463.83588404 -129.16485171 468.20233674 -129.16844749 472.56895447 C-129.17332678 474.66457256 -129.1849787 476.7601861 -129.20348549 478.85572815 C-129.22774672 481.78369407 -129.22693631 484.71063693 -129.2199707 487.63867188 C-129.23278076 488.50632675 -129.24559082 489.37398163 -129.25878906 490.26792908 C-129.24364828 495.18251307 -129.24364828 495.18251307 -126.72062683 499.31945801 C-125.74516655 500.02757629 -125.74516655 500.02757629 -124.75 500.75 C-125.5625 504.1875 -125.5625 504.1875 -126.75 507.75 C-130.5689767 509.02299223 -134.09593623 508.80388317 -138.06640625 508.69921875 C-138.87867172 508.6803511 -139.69093719 508.66148346 -140.52781677 508.64204407 C-142.24346904 508.60019788 -143.95905295 508.55546411 -145.67456055 508.50805664 C-148.30568981 508.43768215 -150.93683692 508.3834414 -153.56835938 508.33007812 C-155.23440051 508.28744382 -156.90041759 508.24385646 -158.56640625 508.19921875 C-159.35600235 508.18453049 -160.14559845 508.16984222 -160.9591217 508.15470886 C-166.52104704 507.97895296 -166.52104704 507.97895296 -168.75 505.75 C-168.20652174 499.66304348 -168.20652174 499.66304348 -166.75 496.75 C-166.09 496.75 -165.43 496.75 -164.75 496.75 C-165.08 464.08 -165.41 431.41 -165.75 397.75 C-175.0957839 397.57664349 -175.0957839 397.57664349 -177.7734375 400.91015625 C-178.83321982 403.99200323 -179.6915563 406.99934778 -180.375 410.1875 C-180.61476562 411.27933594 -180.85453125 412.37117188 -181.1015625 413.49609375 C-181.71390404 416.56886788 -182.23490612 419.65943673 -182.75 422.75 C-187.37 422.75 -191.99 422.75 -196.75 422.75 C-197.81483367 418.49066532 -197.87623365 414.61389039 -197.84765625 410.265625 C-197.84664917 409.5422998 -197.84564209 408.81897461 -197.84460449 408.07373047 C-197.83938887 405.38247076 -197.82542762 402.69123372 -197.8125 400 C-197.791875 393.9775 -197.77125 387.955 -197.75 381.75 C-212.6 381.75 -227.45 381.75 -242.75 381.75 C-242.75 379.44 -242.75 377.13 -242.75 374.75 C-201.83 374.75 -160.91 374.75 -118.75 374.75 C-118.75 373.76 -118.75 372.77 -118.75 371.75 C-119.801875 371.58564453 -119.801875 371.58564453 -120.875 371.41796875 C-126.82023437 370.42440377 -132.22905875 369.1675201 -137.75 366.75 C-138.47574219 366.46253906 -139.20148438 366.17507813 -139.94921875 365.87890625 C-143.60843552 364.29565447 -145.36955716 363.42309119 -147.375 359.875 C-148.13464727 353.54460608 -144.71829752 348.70550113 -141.375 343.625 C-140.98828125 343.01785156 -140.6015625 342.41070312 -140.203125 341.78515625 C-138.51294131 339.18181962 -136.83693602 336.83677533 -134.63671875 334.640625 C-124.09053204 324.07260353 -121.08449223 301.94754877 -118.7109375 287.828125 C-116.93557372 277.61053657 -111.48642889 268.6500582 -103.75 261.75 C-103.09 261.75 -102.43 261.75 -101.75 261.75 C-101.75 261.09 -101.75 260.43 -101.75 259.75 C-101.09 259.75 -100.43 259.75 -99.75 259.75 C-99.46640625 258.88632812 -99.1828125 258.02265625 -98.890625 257.1328125 C-97.81332929 253.93781906 -96.69969796 250.77610539 -95.5 247.625 C-95.1438562 246.68877808 -95.1438562 246.68877808 -94.78051758 245.73364258 C-92.9291359 241.10707369 -90.71506237 236.80376763 -88.27734375 232.45703125 C-79.84067899 217.18234153 -76.08375937 205.22616477 -76.78320312 187.39648438 C-76.73541215 183.58726281 -75.87784546 180.37645694 -74.75 176.75 C-75.63300781 176.78480469 -76.51601562 176.81960937 -77.42578125 176.85546875 C-86.87446214 177.06859689 -94.80447297 176.4475602 -103.1875 171.875 C-109.95796038 165.26108206 -110.05974242 154.07232367 -110.39453125 145.20141602 C-110.93588299 132.10158648 -113.65106948 117.92274861 -120.75 106.75 C-123.6791123 113.05208747 -126.13663419 119.42356241 -128.375 126 C-131.98924332 136.53115727 -131.98924332 136.53115727 -133.75 140.75 C-136.45502403 139.87269491 -138.43400006 139.03331029 -140.5625 137.125 C-142.77743786 132.69512427 -142.31051774 128.51867003 -140.85620117 123.9296875 C-139.62021328 120.77254729 -138.30091262 117.66668146 -136.9375 114.5625 C-136.25977539 112.96245117 -136.25977539 112.96245117 -135.56835938 111.33007812 C-132.21299535 103.49762985 -132.21299535 103.49762985 -130.10668945 100.09643555 C-128.5274171 97.76715711 -128.5274171 97.76715711 -128.5625 94.75 C-130.11547205 90.82670218 -132.09980124 90.03290684 -135.6796875 88.03125 C-140.19589807 85.23631214 -143.45932187 80.9127125 -144.75 75.75 C-145.60462623 68.40021444 -144.37952507 62.21693881 -140.75 55.75 C-137.37580017 52.10941598 -134.65031625 51.20584337 -129.75 50.75 C-129.85441406 49.9146875 -129.85441406 49.9146875 -129.9609375 49.0625 C-130.38217841 43.1250091 -129.22222055 39.90211753 -125.4140625 35.3359375 C-123.38421857 33.4013914 -121.40661377 32.58493576 -118.75 31.75 C-118.42 30.76 -118.09 29.77 -117.75 28.75 C-107.50928819 21.69699848 -97.15540405 19.75245715 -84.9140625 21.05078125 C-80.73665396 21.84879119 -77.15638922 23.11279544 -73.75 25.75 C-73.75 26.41 -73.75 27.07 -73.75 27.75 C-73.09 27.75 -72.43 27.75 -71.75 27.75 C-71.42 28.41 -71.09 29.07 -70.75 29.75 C-69.55375 29.6675 -68.3575 29.585 -67.125 29.5 C-62.56248256 29.5321304 -60.25107619 30.70558592 -56.75 33.75 C-50.75 40.71330275 -50.75 40.71330275 -50.75 43.75 C-48.44 43.75 -46.13 43.75 -43.75 43.75 C-44.12765664 38.71457818 -45.88760985 35.73304832 -48.60546875 31.65234375 C-49.96252034 29.39676653 -50.50483901 27.36505051 -50.75 24.75 C-51.41 25.74 -52.07 26.73 -52.75 27.75 C-54.07 27.42 -55.39 27.09 -56.75 26.75 C-57.1525937 23.22730515 -56.88372795 21.95059192 -54.875 18.9375 C-54.17375 18.215625 -53.4725 17.49375 -52.75 16.75 C-52.09 16.75 -51.43 16.75 -50.75 16.75 C-50.5953125 15.2340625 -50.5953125 15.2340625 -50.4375 13.6875 C-49.71295233 9.53781792 -48.52730734 6.53643737 -46.75 2.75 C-46.09 2.75 -45.43 2.75 -44.75 2.75 C-44.50378906 2.13253906 -44.25757813 1.51507813 -44.00390625 0.87890625 C-41.77490414 -2.90553658 -37.71059435 -3.7470684 -33.75 -5.25 C-32.95207031 -5.56453125 -32.15414062 -5.8790625 -31.33203125 -6.203125 C-21.27728693 -9.90839092 -9.19879672 -4.93343288 0 0 Z M-43.75 260.75 C-44.31589844 261.46027344 -44.88179688 262.17054688 -45.46484375 262.90234375 C-46.56505859 264.28099609 -46.56505859 264.28099609 -47.6875 265.6875 C-48.41839844 266.60402344 -49.14929688 267.52054687 -49.90234375 268.46484375 C-51.75 270.75 -51.75 270.75 -52.75 271.75 C-56.28895812 271.95417066 -59.01060061 272.05658023 -62.3125 270.6875 C-65.60862638 269.41975908 -67.39235622 269.70073632 -70.75 270.75 C-73.6471941 273.06273442 -73.6471941 273.06273442 -75.75 275.75 C-75.75 276.41 -75.75 277.07 -75.75 277.75 C-76.3171875 277.98332031 -76.884375 278.21664063 -77.46875 278.45703125 C-85.2612034 282.87364439 -90.70714089 291.79761428 -94.0390625 299.875 C-96.33017675 305.26330869 -99.24261565 310.34255794 -102.078125 315.45898438 C-105.95601118 322.6482583 -111.18097663 333.34301231 -109.75 341.75 C-108.55503498 343.23142923 -107.35206071 344.70837326 -106.08203125 346.12597656 C-103.15347573 349.6964955 -101.52722585 354.15370289 -99.59375 358.3125 C-96.2385839 364.67687766 -96.2385839 364.67687766 -90.46875 368.59765625 C-89.7365625 368.66855469 -89.004375 368.73945313 -88.25 368.8125 C-86.03125 369.03515625 -86.03125 369.03515625 -83.75 369.75 C-82.77089912 370.99156357 -82.77089912 370.99156357 -81.77201843 372.25820923 C-77.36362214 375.8931312 -73.66770134 375.42389155 -68.11645508 375.33349609 C-67.04604477 375.33583252 -65.97563446 375.33816895 -64.87278748 375.34057617 C-61.33787123 375.34218996 -57.80426222 375.30816751 -54.26953125 375.2734375 C-51.81524629 375.26664888 -49.36095481 375.2619262 -46.90666199 375.25918579 C-41.76611395 375.24850842 -36.62600076 375.2218064 -31.4855957 375.18212891 C-24.88432382 375.13118137 -18.28330159 375.10610778 -11.68185902 375.09119225 C-5.39854821 375.07642783 0.88470343 375.05118523 7.16796875 375.0234375 C8.37307791 375.01852673 9.57818707 375.01361595 10.81981468 375.00855637 C14.21482216 374.99233771 17.6096942 374.96893506 21.00463867 374.94287109 C22.01817413 374.93861115 23.03170959 374.9343512 24.07595825 374.92996216 C24.99703873 374.92136169 25.9181192 374.91276123 26.86711121 374.90390015 C27.66995135 374.89832785 28.4727915 374.89275555 29.29996014 374.88701439 C31.33035002 374.86958489 31.33035002 374.86958489 33.25 373.75 C33.44243024 368.93924394 33.11687649 365.20976049 31.25 360.75 C30.59 360.09 29.93 359.43 29.25 358.75 C29.3015625 357.53054688 29.353125 356.31109375 29.40625 355.0546875 C29.51678745 350.34196596 27.60979375 347.47855721 24.75 343.875 C24.29584717 343.27204102 23.84169434 342.66908203 23.3737793 342.04785156 C22.02063276 340.26388896 20.64216175 338.50362277 19.25 336.75 C18.52425781 335.83476562 17.79851562 334.91953125 17.05078125 333.9765625 C15.74180238 332.34612517 14.42938613 330.71844059 13.11328125 329.09375 C3.57543204 317.09645539 -3.98162638 304.65965216 -7.75 289.75 C-8.19666016 288.02716797 -8.19666016 288.02716797 -8.65234375 286.26953125 C-9.37339889 283.43515321 -10.06487316 280.59327638 -10.75 277.75 C-17.35 277.42 -23.95 277.09 -30.75 276.75 C-31.74 274.275 -31.74 274.275 -32.75 271.75 C-34.31159903 269.3357333 -34.31159903 269.3357333 -36.125 267.0625 C-37.00285156 265.91201172 -37.00285156 265.91201172 -37.8984375 264.73828125 C-39.75544377 262.74415426 -41.25147185 261.77912944 -43.75 260.75 Z M6.25 381.75 C2.61276614 390.84308465 5.99124397 399.16862124 8.5625 408.3125 C9.20044914 410.6233586 9.83717087 412.9345564 10.47265625 415.24609375 C10.77961426 416.35968262 11.08657227 417.47327148 11.40283203 418.62060547 C12.50433787 422.68951091 13.51322858 426.77706709 14.5 430.875 C15.76030694 436.01401021 17.21528919 440.86669405 19.25 445.75 C21.39593333 443.60406667 21.7121677 442.71405568 22.4765625 439.8671875 C22.81216187 438.63367554 22.81216187 438.63367554 23.15454102 437.37524414 C23.39229248 436.46766357 23.63004395 435.56008301 23.875 434.625 C24.12499756 433.67810303 24.37499512 432.73120605 24.63256836 431.75561523 C25.19206537 429.6252033 25.74807205 427.49387279 26.30126953 425.36181641 C27.16030972 422.09145086 28.04573519 418.82990479 28.94067383 415.5692749 C29.72310928 412.70010072 30.4850447 409.82571213 31.24310303 406.95001221 C31.62090862 405.53173269 32.00630465 404.11545216 32.3994751 402.70135498 C32.95588553 400.6926772 33.48276129 398.67822885 34.00390625 396.66015625 C34.31658447 395.49621338 34.6292627 394.33227051 34.95141602 393.13305664 C35.34021289 388.72785768 34.22058649 386.65976799 32.25 382.75 C32.25 382.42 32.25 382.09 32.25 381.75 C23.67 381.75 15.09 381.75 6.25 381.75 Z M69.25 381.75 C68.92 383.73 68.59 385.71 68.25 387.75 C67.92 388.08 67.59 388.41 67.25 388.75 C67.7173903 393.81520655 68.59268363 398.57144492 69.875 403.5 C70.22979047 404.87614141 70.58389736 406.25245915 70.9375 407.62890625 C71.13988281 408.41281738 71.34226562 409.19672852 71.55078125 410.00439453 C72.38463746 413.27867767 73.19285643 416.5588744 74 419.83984375 C74.30856934 421.08991211 74.61713867 422.33998047 74.93505859 423.62792969 C75.55480399 426.13974973 76.17236765 428.65210923 76.78759766 431.16503906 C77.07683105 432.33131836 77.36606445 433.49759766 77.6640625 434.69921875 C77.9213916 435.74424561 78.1787207 436.78927246 78.44384766 437.8659668 C79.20644159 440.59416853 80.14381688 443.14462398 81.25 445.75 C81.91 445.75 82.57 445.75 83.25 445.75 C90.08015315 420.85490215 90.08015315 420.85490215 96.0625 395.75 C96.23942383 394.99493164 96.41634766 394.23986328 96.59863281 393.46191406 C97.69300825 388.03574166 96.98328747 387.21657494 94.25 381.75 C86 381.75 77.75 381.75 69.25 381.75 Z M-73.75 390.75 C-73.75 429.69 -73.75 468.63 -73.75 508.75 C-67.13569507 508.31873679 -67.13569507 508.31873679 -63.75 505.75 C-63.30370226 503.63320687 -63.30370226 503.63320687 -63.38923645 501.14364624 C-63.38305046 499.68808067 -63.38305046 499.68808067 -63.3767395 498.20310974 C-63.38752533 497.13496536 -63.39831116 496.06682098 -63.40942383 494.96630859 C-63.40898575 493.84435593 -63.40854767 492.72240326 -63.40809631 491.56645203 C-63.41019282 487.84360586 -63.433565 484.12120537 -63.45703125 480.3984375 C-63.46262412 477.82297003 -63.46689567 475.24749938 -63.46989441 472.67202759 C-63.48019364 466.57692128 -63.50385778 460.48199997 -63.53394288 454.38696349 C-63.56744823 447.44874053 -63.58396313 440.51050997 -63.59902918 433.57222629 C-63.63040642 419.29806193 -63.68379368 405.02404245 -63.75 390.75 C-67.05 390.75 -70.35 390.75 -73.75 390.75 Z " fill="#F7F7F7" transform="translate(242.75,12.25)"/>
<path d="M0 0 C3.96 0 7.92 0 12 0 C13.0840405 2.71010125 14.16805572 5.42021261 15.25195312 8.13037109 C16.16947317 10.42384492 17.08744406 12.71713844 18.00585938 15.01025391 C19.99079295 19.96766069 21.97502292 24.92509898 23.9296875 29.89453125 C24.33646729 30.92501587 24.33646729 30.92501587 24.75146484 31.97631836 C25.451308 33.7514913 26.1476601 35.52803945 26.84375 37.3046875 C28.58000664 41.35204249 29.99696207 43.26535023 34 45 C34 45.99 34 46.98 34 48 C25.75 48 17.5 48 9 48 C9 47.01 9 46.02 9 45 C11.31 44.67 13.62 44.34 16 44 C15.7834375 43.39671875 15.566875 42.7934375 15.34375 42.171875 C15.0653125 41.37265625 14.786875 40.5734375 14.5 39.75 C14.2215625 38.96109375 13.943125 38.1721875 13.65625 37.359375 C13 35 13 35 13 31 C7.39 31 1.78 31 -4 31 C-4.33 32.65 -4.66 34.3 -5 36 C-5.65146849 38.33762223 -6.31526605 40.67190457 -7 43 C-4.69 43.66 -2.38 44.32 0 45 C0 45.99 0 46.98 0 48 C-6.6 48 -13.2 48 -20 48 C-20.495 46.515 -20.495 46.515 -21 45 C-20.07058594 44.81179688 -19.14117188 44.62359375 -18.18359375 44.4296875 C-14.76148805 43.27579011 -14.76148805 43.27579011 -13.34765625 40.0078125 C-12.89534732 38.72170687 -12.46854672 37.42645192 -12.0625 36.125 C-11.8243457 35.42898682 -11.58619141 34.73297363 -11.34082031 34.01586914 C-10.82289416 32.49858547 -10.31467385 30.97796266 -9.81494141 29.45458984 C-8.95661084 26.86931257 -8.0526952 24.30367394 -7.13671875 21.73828125 C-4.5714611 14.53818165 -2.01949378 7.37511209 0 0 Z M3 10 C2.1605118 12.10171867 1.32860344 14.20646625 0.5 16.3125 C0.0359375 17.48425781 -0.428125 18.65601563 -0.90625 19.86328125 C-2.16462513 22.91846448 -2.16462513 22.91846448 -2 26 C1.96 26 5.92 26 10 26 C8.23196827 20.52752083 6.34565002 15.24978815 4 10 C3.67 10 3.34 10 3 10 Z " fill="#E0E0E0" transform="translate(39,555)"/>
<path d="M0 0 C0.33 15.18 0.66 30.36 1 46 C2.65 46.33 4.3 46.66 6 47 C5 49 5 49 2.85546875 49.8515625 C1.97503906 50.10679687 1.09460938 50.36203125 0.1875 50.625 C-1.12154297 51.01558594 -1.12154297 51.01558594 -2.45703125 51.4140625 C-5 52 -5 52 -9 52 C-9 50.68 -9 49.36 -9 48 C-9.969375 48.66 -10.93875 49.32 -11.9375 50 C-16.25108226 52.42257751 -20.14601326 53.14715031 -25 52 C-29.198927 49.53004294 -32.14239999 46.52626482 -34 42 C-34.66383544 35.47228482 -33.4164096 30.62376516 -30 25 C-25.34126848 20.34126848 -21.16913582 18.89325813 -14.6875 18.875 C-13.12477089 18.90693899 -11.56210161 18.94540227 -10 19 C-9.37685789 12.80136385 -9.37685789 12.80136385 -12 7.4375 C-12.66 6.963125 -13.32 6.48875 -14 6 C-13 3 -13 3 -11.3125 1.875 C-7.57902694 0.46233452 -3.97746406 0 0 0 Z M-22.5 25.4375 C-24.63644891 30.51156617 -25.05369393 34.82115931 -23.3046875 40.09765625 C-21.71752561 43.34533626 -20.42050458 44.83000879 -17.0625 46.1875 C-13.00065024 45.93881532 -11.75667455 44.97757668 -9 42 C-8.31270192 39.10542488 -8.39073117 36.33519199 -8.5 33.375 C-8.49742188 32.59898437 -8.49484375 31.82296875 -8.4921875 31.0234375 C-8.49601528 28.51198856 -8.49601528 28.51198856 -9 25 C-12.19263733 22.87157512 -14.24071867 22.44687793 -18.05859375 22.56640625 C-20.33056192 22.89539697 -20.33056192 22.89539697 -22.5 25.4375 Z " fill="#EBEBEB" transform="translate(110,552)"/>
<path d="M0 0 C0 1.98 0 3.96 0 6 C0.72445312 5.6390625 1.44890625 5.278125 2.1953125 4.90625 C3.64550781 4.21015625 3.64550781 4.21015625 5.125 3.5 C6.07632813 3.0359375 7.02765625 2.571875 8.0078125 2.09375 C11.27453858 0.89964647 13.55043816 0.63057544 17 1 C20.10164769 3.55024365 21.72566416 5.17699247 23 9 C23.04462909 10.52017837 23.03904545 12.04216797 23 13.5625 C22.95473453 18.69258689 22.92169377 23.96451336 24 29 C24.66 29.33 25.32 29.66 26 30 C26 30.99 26 31.98 26 33 C20.06 33 14.12 33 8 33 C8 32.34 8 31.68 8 31 C7.34 31 6.68 31 6 31 C6 31.66 6 32.32 6 33 C-0.6 33 -7.2 33 -14 33 C-14 32.01 -14 31.02 -14 30 C-12.35 29.67 -10.7 29.34 -9 29 C-9.33 22.07 -9.66 15.14 -10 8 C-11.65 7.67 -13.3 7.34 -15 7 C-14.67 6.01 -14.34 5.02 -14 4 C-11.34765625 2.83203125 -11.34765625 2.83203125 -8.0625 1.8125 C-6.98097656 1.46832031 -5.89945313 1.12414062 -4.78515625 0.76953125 C-2 0 -2 0 0 0 Z M1 10 C-1.03480984 12.03480984 -0.18507583 16.08720017 -0.1875 18.875 C-0.19974609 19.60847656 -0.21199219 20.34195313 -0.22460938 21.09765625 C-0.23509566 24.93563514 -0.17768617 26.73347074 2 30 C6.34586828 30.39507893 8.32003497 30.45331002 12 28 C13.05848634 24.82454097 13.16670878 22.45991204 13.1875 19.125 C13.20876953 17.58199219 13.20876953 17.58199219 13.23046875 16.0078125 C12.99355839 12.91593152 12.38996697 10.76014794 11 8 C7.22646791 5.84369595 4.45522712 8.00364655 1 10 Z " fill="#E2E2E2" transform="translate(207,570)"/>
<path d="M0 0 C-0.01571045 0.97610229 -0.01571045 0.97610229 -0.03173828 1.97192383 C-0.07329835 4.9187433 -0.09932608 7.86550111 -0.125 10.8125 C-0.14175781 11.83666016 -0.15851563 12.86082031 -0.17578125 13.91601562 C-0.18544922 15.39038086 -0.18544922 15.39038086 -0.1953125 16.89453125 C-0.21102295 18.25348511 -0.21102295 18.25348511 -0.22705078 19.63989258 C-0.16165391 22.26936448 -0.16165391 22.26936448 2 25 C5.12290635 24.51421457 7.99580359 24.0013988 11 23 C10.85848172 20.9163691 10.71162064 18.83310062 10.5625 16.75 C10.48128906 15.58984375 10.40007812 14.4296875 10.31640625 13.234375 C9.96532869 9.54455102 9.96532869 9.54455102 9 6 C7.0162233 4.71563266 7.0162233 4.71563266 5 4 C5 3.34 5 2.68 5 2 C6.9363704 1.49564306 8.87414146 0.99666126 10.8125 0.5 C11.89144531 0.2215625 12.97039062 -0.056875 14.08203125 -0.34375 C17 -1 17 -1 20 -1 C20.33 8.24 20.66 17.48 21 27 C22.32 27 23.64 27 25 27 C25 27.66 25 28.32 25 29 C23.4188708 29.50692692 21.83498617 30.00526443 20.25 30.5 C19.36828125 30.7784375 18.4865625 31.056875 17.578125 31.34375 C15 32 15 32 11 32 C11 30.35 11 28.7 11 27 C10.35933594 27.3609375 9.71867187 27.721875 9.05859375 28.09375 C-0.17613045 33.04829652 -0.17613045 33.04829652 -6 32 C-8.90717073 29.78136971 -9.83981643 28.48055071 -11 25 C-11.12308854 23.56673701 -11.20051455 22.12922269 -11.24609375 20.69140625 C-11.29540039 19.44713867 -11.29540039 19.44713867 -11.34570312 18.17773438 C-11.40675943 16.43827911 -11.46406886 14.69868816 -11.51757812 12.95898438 C-11.55173828 12.12818359 -11.58589844 11.29738281 -11.62109375 10.44140625 C-11.6461499 9.68545166 -11.67120605 8.92949707 -11.69702148 8.15063477 C-12.03356812 5.76172317 -12.81665807 4.08764124 -14 2 C-12.60993485 1.46396181 -11.21257351 0.94682527 -9.8125 0.4375 C-9.03519531 0.14746094 -8.25789063 -0.14257812 -7.45703125 -0.44140625 C-4.6262574 -1.08496851 -2.79995786 -0.63830066 0 0 Z " fill="#DBDBDB" transform="translate(277,572)"/>
<path d="M0 0 C5.10837148 3.24229971 6.43144659 9.10683976 8.25 14.5625 C3.77421488 16.87543038 -0.18878518 16.62304199 -5.0625 16.1875 C-5.80306641 16.13078125 -6.54363281 16.0740625 -7.30664062 16.015625 C-9.12193743 15.87508589 -10.93611597 15.72022905 -12.75 15.5625 C-10.87297673 20.45812693 -10.87297673 20.45812693 -7.75 24.5625 C-3.83503399 25.08449547 -2.27387619 24.95236135 0.9375 22.5625 C1.700625 21.9025 2.46375 21.2425 3.25 20.5625 C4.24 20.5625 5.23 20.5625 6.25 20.5625 C5.05838951 25.19654081 2.78344734 26.9673178 -0.99609375 29.546875 C-5.3381056 32.0611803 -9.8777035 32.28970843 -14.75 31.5625 C-19.08788608 29.52018075 -21.95381914 27.04888838 -23.75 22.5625 C-25.14125745 16.25285355 -25.40725309 10.88624829 -22.0625 5.21875 C-16.75621712 -1.47727363 -7.68581488 -3.64413636 0 0 Z M-10.75 2.5625 C-12.9513866 6.36677492 -12.9513866 6.36677492 -13.75 10.5625 C-10.45 10.8925 -7.15 11.2225 -3.75 11.5625 C-4.27442422 7.7866456 -5.07654667 5.33877845 -7.75 2.5625 C-8.74 2.5625 -9.73 2.5625 -10.75 2.5625 Z " fill="#D8D8D8" transform="translate(182.75,572.4375)"/>
<path d="M0 0 C3.61267317 2.62739867 5.43695931 5.73488162 6.75 10 C6.42 10.66 6.09 11.32 5.75 12 C6.41 12 7.07 12 7.75 12 C7.42 13.32 7.09 14.64 6.75 16 C0.48 16.33 -5.79 16.66 -12.25 17 C-9.8297509 22.63106761 -9.8297509 22.63106761 -7.25 25 C-4.37693772 25.50095023 -4.37693772 25.50095023 -1.25 25 C0.44321939 23.70055256 2.11395804 22.37073786 3.75 21 C4.74 21.33 5.73 21.66 6.75 22 C3.2657813 26.5097157 0.31884187 30.14371938 -5.25 32 C-10.16403979 32.53171111 -13.8897025 32.47609654 -18.25 30 C-18.25 29.34 -18.25 28.68 -18.25 28 C-19.24 27.67 -20.23 27.34 -21.25 27 C-23.39301261 23.78548108 -23.62613434 22.32440968 -23.9375 18.5625 C-24.06705078 17.14130859 -24.06705078 17.14130859 -24.19921875 15.69140625 C-24.2992808 10.38811775 -22.60185991 7.12536604 -19.25 3 C-13.08965418 -1.4529329 -7.27906814 -2.23971327 0 0 Z M-10.25 3 C-10.91 4.11375 -11.57 5.2275 -12.25 6.375 C-12.62125 7.00148438 -12.9925 7.62796875 -13.375 8.2734375 C-14.40068348 9.97472667 -14.40068348 9.97472667 -14.25 12 C-10.62 12 -6.99 12 -3.25 12 C-4.37697043 7.03088634 -4.37697043 7.03088634 -7.25 3 C-8.24 3 -9.23 3 -10.25 3 Z " fill="#E2E2E2" transform="translate(360.25,572)"/>
<path d="M0 0 C6.27 0 12.54 0 19 0 C19.33 0.99 19.66 1.98 20 3 C19.01 3.495 19.01 3.495 18 4 C17.01 3.67 16.02 3.34 15 3 C15.3609375 3.84304688 15.721875 4.68609375 16.09375 5.5546875 C16.5578125 6.65039062 17.021875 7.74609375 17.5 8.875 C17.9640625 9.96554687 18.428125 11.05609375 18.90625 12.1796875 C20 15 20 15 20 17 C23.09537351 15.93262982 23.98455997 15.02481433 25.75 12.1875 C26.94728978 9.13441107 27.28472808 7.22691821 27 4 C26.360625 3.896875 25.72125 3.79375 25.0625 3.6875 C24.0415625 3.3471875 24.0415625 3.3471875 23 3 C22.67 2.01 22.34 1.02 22 0 C27.61 0 33.22 0 39 0 C39 0.99 39 1.98 39 3 C38.2471875 3.18820312 37.494375 3.37640625 36.71875 3.5703125 C33.0283947 5.51093037 32.03926285 8.19161738 30.5 11.875 C30.20665771 12.53959229 29.91331543 13.20418457 29.61108398 13.88891602 C28.72154347 15.91830904 27.85782161 17.95702359 27 20 C26.48566406 21.20785156 25.97132813 22.41570313 25.44140625 23.66015625 C24.27487712 26.43272832 23.12696185 29.21115893 22 32 C20.35 32 18.7 32 17 32 C8.63462009 16.77175987 8.63462009 16.77175987 5.7890625 8.953125 C4.96964745 6.73494493 4.96964745 6.73494493 3 4 C2.01 3.67 1.02 3.34 0 3 C0 2.01 0 1.02 0 0 Z M23 17 C24 19 24 19 24 19 Z " fill="#DFDFDF" transform="translate(117,572)"/>
<path d="M0 0 C0 0.66 0 1.32 0 2 C0.99 1.34 1.98 0.68 3 0 C6.76327304 0.32027856 9.73007522 1.11350494 13 3 C12.8125 5.875 12.8125 5.875 12 9 C9.15349959 10.81859748 7.64584329 11.10513728 4.3125 10.5625 C3.549375 10.376875 2.78625 10.19125 2 10 C1.01 10.495 1.01 10.495 0 11 C0 16.61 0 22.22 0 28 C1.98 28.33 3.96 28.66 6 29 C6 29.99 6 30.98 6 32 C-1.26 32 -8.52 32 -16 32 C-16 31.01 -16 30.02 -16 29 C-14.68 28.34 -13.36 27.68 -12 27 C-11.89187997 24.24894578 -11.81265055 21.50214913 -11.75 18.75 C-11.71648437 17.97269531 -11.68296875 17.19539062 -11.6484375 16.39453125 C-11.53479091 11.54282312 -11.53479091 11.54282312 -14.015625 7.453125 C-14.67046875 6.97359375 -15.3253125 6.4940625 -16 6 C-15 3 -15 3 -12.63671875 1.796875 C-11.66347656 1.45140625 -10.69023437 1.1059375 -9.6875 0.75 C-8.23923828 0.21632813 -8.23923828 0.21632813 -6.76171875 -0.328125 C-3.97753166 -1.00546613 -2.64521065 -0.98017307 0 0 Z " fill="#E1E1E1" transform="translate(321,571)"/>
<path d="M0 0 C0.495 0.33 0.99 0.66 1.5 1 C1.5 3.64 1.5 6.28 1.5 9 C0.18 8.67 -1.14 8.34 -2.5 8 C-2.83 6.68 -3.16 5.36 -3.5 4 C-5.48 4 -7.46 4 -9.5 4 C-9.15213292 5.97536745 -9.15213292 5.97536745 -8.5 8 C-7.84 8.33 -7.18 8.66 -6.5 9 C-6.5 9.66 -6.5 10.32 -6.5 11 C-4.52 11.66 -2.54 12.32 -0.5 13 C-0.5 13.66 -0.5 14.32 -0.5 15 C0.16 15 0.82 15 1.5 15 C3.84144827 18.65851291 3.94965259 21.72830036 3.5 26 C1.70437595 28.75329021 0.44745078 30.52627461 -2.5 32 C-5.21760108 32.07181821 -7.90859388 32.09299506 -10.625 32.0625 C-11.37910156 32.05798828 -12.13320313 32.05347656 -12.91015625 32.04882812 C-14.77347127 32.03703499 -16.63674555 32.01909942 -18.5 32 C-18.5 28.7 -18.5 25.4 -18.5 22 C-17.51 22 -16.52 22 -15.5 22 C-15.314375 22.639375 -15.12875 23.27875 -14.9375 23.9375 C-13.55753944 26.42126213 -13.55753944 26.42126213 -9.875 26.75 C-8.76125 26.8325 -7.6475 26.915 -6.5 27 C-6.38364895 24.70218446 -6.38364895 24.70218446 -7.5 22 C-9.39962909 20.29629678 -11.38560173 18.86776266 -13.4921875 17.4296875 C-15.42240348 16.05525356 -17.00289681 14.83693643 -18.5 13 C-18.89919236 9.90625918 -19.12913952 7.96099607 -18.5 5 C-13.76154994 -1.01911224 -7.18893078 -2.87557231 0 0 Z " fill="#E0E0E0" transform="translate(391.5,572)"/>
<path d="M0 0 C0.66 0 1.32 0 2 0 C2 3.3 2 6.6 2 10 C5.3 10 8.6 10 12 10 C11.67 11.32 11.34 12.64 11 14 C8.36 14 5.72 14 3 14 C3 21.26 3 28.52 3 36 C4.98 35.34 6.96 34.68 9 34 C10.485 33.505 10.485 33.505 12 33 C11.79570164 36.6773705 11.22067989 37.80084985 8.4375 40.3125 C4.02167783 42.48026725 1.86953307 42.62832685 -3 42 C-5.96858157 39.79259319 -6.82865791 38.51402627 -8 35 C-8.11247935 33.48170284 -8.17764933 31.95959388 -8.2109375 30.4375 C-8.23929688 29.55835938 -8.26765625 28.67921875 -8.296875 27.7734375 C-8.3489526 25.92468258 -8.39322581 24.07569131 -8.4296875 22.2265625 C-8.47609375 20.90785156 -8.47609375 20.90785156 -8.5234375 19.5625 C-8.54325684 18.75941406 -8.56307617 17.95632813 -8.58349609 17.12890625 C-9.08741168 14.55320644 -10.00780111 13.64616102 -12 12 C-11.46890625 11.63648438 -10.9378125 11.27296875 -10.390625 10.8984375 C-5.8040675 7.63428161 -2.94725288 4.76094696 0 0 Z " fill="#DEDEDE" transform="translate(248,562)"/>
<path d="M0 0 C0 0.33 0 0.66 0 1 C-0.90492187 0.9690625 -0.90492187 0.9690625 -1.828125 0.9375 C-6.63219639 0.99834858 -6.63219639 0.99834858 -10.48828125 3.53125 C-13.16601573 8.43880702 -13.91435347 13.49285953 -13 19 C-11.63002843 21.87146994 -11.63002843 21.87146994 -10 24 C-10 24.66 -10 25.32 -10 26 C-5.78121808 26.19622241 -2.82989106 25.80230168 1 24 C0.67 24.99 0.34 25.98 0 27 C0.66 27 1.32 27 2 27 C2 28.98 2 30.96 2 33 C1.67 31.68 1.34 30.36 1 29 C0.030625 29.66 -0.93875 30.32 -1.9375 31 C-6.25108226 33.42257751 -10.14601326 34.14715031 -15 33 C-19.198927 30.53004294 -22.14239999 27.52626482 -24 23 C-24.66383544 16.47228482 -23.4164096 11.62376516 -20 6 C-13.93931992 -0.06068008 -8.15955932 -0.28518848 0 0 Z " fill="#DEDEDE" transform="translate(100,571)"/>
<path d="M0 0 C0 1.98 0 3.96 0 6 C1.65 5.67 3.3 5.34 5 5 C4.6875 6.875 4.6875 6.875 4 9 C3.01 9.66 2.02 10.32 1 11 C0.66787849 13.72279799 0.53601281 16.15404318 0.5625 18.875 C0.54251953 19.59558594 0.52253906 20.31617188 0.50195312 21.05859375 C0.5052954 24.68830375 0.63845056 26.5750575 3.02734375 29.3828125 C3.67832031 29.91648437 4.32929688 30.45015625 5 31 C5 31.66 5 32.32 5 33 C-1.27 33 -7.54 33 -14 33 C-14 32.01 -14 31.02 -14 30 C-12.35 29.67 -10.7 29.34 -9 29 C-9.33 22.07 -9.66 15.14 -10 8 C-11.65 7.67 -13.3 7.34 -15 7 C-14.67 6.01 -14.34 5.02 -14 4 C-11.34765625 2.83203125 -11.34765625 2.83203125 -8.0625 1.8125 C-6.98097656 1.46832031 -5.89945313 1.12414062 -4.78515625 0.76953125 C-2 0 -2 0 0 0 Z " fill="#E8E8E8" transform="translate(207,570)"/>
<path d="M0 0 C0.33 9.24 0.66 18.48 1 28 C2.32 28 3.64 28 5 28 C5 28.66 5 29.32 5 30 C3.4188708 30.50692692 1.83498617 31.00526443 0.25 31.5 C-1.07257813 31.91765625 -1.07257813 31.91765625 -2.421875 32.34375 C-5 33 -5 33 -9 33 C-9 31.02 -9 29.04 -9 27 C-9.66 26.67 -10.32 26.34 -11 26 C-10.67 25.67 -10.34 25.34 -10 25 C-9.90019827 22.73097824 -9.87032191 20.45871075 -9.875 18.1875 C-9.87113281 16.32158203 -9.87113281 16.32158203 -9.8671875 14.41796875 C-10.00589904 10.61324712 -10.00589904 10.61324712 -11 7 C-12.9837767 5.71563266 -12.9837767 5.71563266 -15 5 C-15 4.34 -15 3.68 -15 3 C-13.0636296 2.49564306 -11.12585854 1.99666126 -9.1875 1.5 C-8.10855469 1.2215625 -7.02960938 0.943125 -5.91796875 0.65625 C-3 0 -3 0 0 0 Z " fill="#EEEEEE" transform="translate(297,571)"/>
<path d="M0 0 C3.61267317 2.62739867 5.43695931 5.73488162 6.75 10 C6.42 10.66 6.09 11.32 5.75 12 C6.41 12 7.07 12 7.75 12 C7.42 13.32 7.09 14.64 6.75 16 C-3.645 16.495 -3.645 16.495 -14.25 17 C-13.59 15.68 -12.93 14.36 -12.25 13 C-9.28 13 -6.31 13 -3.25 13 C-4.57 10.03 -5.89 7.06 -7.25 4 C-8.57 4 -9.89 4 -11.25 4 C-11.25 3.01 -11.25 2.02 -11.25 1 C-12.24 0.67 -13.23 0.34 -14.25 0 C-9.27371524 -1.65876159 -4.93773728 -1.51930378 0 0 Z " fill="#CECECE" transform="translate(360.25,572)"/>
<path d="M0 0 C5.61 0 11.22 0 17 0 C17 0.99 17 1.98 17 3 C16.24332031 3.18304687 15.48664063 3.36609375 14.70703125 3.5546875 C10.97733268 5.54601285 10.10453878 8.34872251 8.6875 12.125 C8.42388672 12.78371094 8.16027344 13.44242188 7.88867188 14.12109375 C7.24302669 15.7410762 6.61931686 17.36977073 6 19 C5.34 18.34 4.68 17.68 4 17 C3.01 16.67 2.02 16.34 1 16 C1.66 14.948125 2.32 13.89625 3 12.8125 C4.7771585 9.73376063 5.43806506 7.61403672 5 4 C4.360625 3.896875 3.72125 3.79375 3.0625 3.6875 C2.381875 3.460625 1.70125 3.23375 1 3 C0.67 2.01 0.34 1.02 0 0 Z " fill="#C6C6C6" transform="translate(139,572)"/>
<path d="M0 0 C0.66 0 1.32 0 2 0 C2.33 0.66 2.66 1.32 3 2 C37.32 2.33 71.64 2.66 107 3 C107 3.33 107 3.66 107 4 C93.08353595 4.15383723 79.16702019 4.30180457 65.25042152 4.4429636 C58.78898564 4.50867595 52.32758114 4.57629059 45.86621094 4.64819336 C39.63525712 4.71746303 33.40427044 4.7818133 27.17322922 4.84269524 C24.7912752 4.86684446 22.40933874 4.89279204 20.02742386 4.92053413 C16.701416 4.95897036 13.37540417 4.99111754 10.04931641 5.02172852 C9.05597794 5.03467453 8.06263947 5.04762054 7.03919983 5.06095886 C5.68460411 5.0715181 5.68460411 5.0715181 4.30264282 5.08229065 C3.12182601 5.09473485 3.12182601 5.09473485 1.91715431 5.10743046 C0 5 0 5 -2 4 C-1.34 2.68 -0.68 1.36 0 0 Z " fill="#F0F0F0" transform="translate(306,384)"/>
<path d="M0 0 C8.57142857 -0.28571429 8.57142857 -0.28571429 12 2 C12 4.64 12 7.28 12 10 C10.68 9.67 9.36 9.34 8 9 C7.67 7.68 7.34 6.36 7 5 C4.08365871 4.7497843 4.08365871 4.7497843 1 5 C0.34 5.99 -0.32 6.98 -1 8 C-0.625 5.5625 -0.625 5.5625 0 3 C0.66 2.67 1.32 2.34 2 2 C1.34 1.34 0.68 0.68 0 0 Z " fill="#B9B9B9" transform="translate(381,571)"/>
<path d="M0 0 C0.66 0.33 1.32 0.66 2 1 C1.67 1.66 1.34 2.32 1 3 C1.66 3 2.32 3 3 3 C3 4.98 3 6.96 3 9 C2.67 7.68 2.34 6.36 2 5 C1.030625 5.66 0.06125 6.32 -0.9375 7 C-5.25589579 9.51316476 -9.12632275 9.3978512 -14 9 C-14 8.67 -14 8.34 -14 8 C-11.36 8 -8.72 8 -6 8 C-6.33 7.01 -6.66 6.02 -7 5 C-5.47058649 1.94117299 -3.05780454 1.31048766 0 0 Z " fill="#A0A0A0" transform="translate(99,595)"/>
<path d="M0 0 C0.66 0 1.32 0 2 0 C2.33 0.66 2.66 1.32 3 2 C12.57 2.33 22.14 2.66 32 3 C32 3.33 32 3.66 32 4 C27.47954554 4.16749457 22.95891882 4.32806608 18.43798828 4.48217773 C16.89950922 4.53560391 15.36109506 4.59093379 13.82275391 4.64819336 C11.61374914 4.73008748 9.40460276 4.80517099 7.1953125 4.87890625 C6.50567413 4.90594131 5.81603577 4.93297638 5.10549927 4.96083069 C0.22774341 5.11387171 0.22774341 5.11387171 -2 4 C-1.34 2.68 -0.68 1.36 0 0 Z " fill="#C6C6C6" transform="translate(306,384)"/>
<path d="M0 0 C-1.47692308 4.67692308 -1.47692308 4.67692308 -4.125 6.3125 C-5.053125 6.6528125 -5.053125 6.6528125 -6 7 C-6.66 6.01 -7.32 5.02 -8 4 C-3.375 0 -3.375 0 0 0 Z " fill="#BABABA" transform="translate(189,593)"/>
<path d="M0 0 C0.99 0 1.98 0 3 0 C2.125 3.875 2.125 3.875 1 5 C-0.51928038 5.07179964 -2.04167482 5.08392007 -3.5625 5.0625 C-4.38878906 5.05347656 -5.21507813 5.04445313 -6.06640625 5.03515625 C-6.70449219 5.02355469 -7.34257813 5.01195312 -8 5 C-8 4.67 -8 4.34 -8 4 C-5.36 4 -2.72 4 0 4 C-0.33 3.01 -0.66 2.02 -1 1 C-0.67 0.67 -0.34 0.34 0 0 Z " fill="#B7B7B7" transform="translate(93,599)"/>
<path d="M0 0 C0.99 0.33 1.98 0.66 3 1 C1.35 2.65 -0.3 4.3 -2 6 C-2.99 5.34 -3.98 4.68 -5 4 C-2.6875 1.9375 -2.6875 1.9375 0 0 Z " fill="#CDCDCD" transform="translate(364,593)"/>
<path d="M0 0 C1.32 0.33 2.64 0.66 4 1 C4 1.66 4 2.32 4 3 C4.66 3.33 5.32 3.66 6 4 C4.68 5.32 3.36 6.64 2 8 C2 5.69 2 3.38 2 1 C1.34 0.67 0.68 0.34 0 0 Z " fill="#464646" transform="translate(317,570)"/>
<path d="M0 0 C0.66 0 1.32 0 2 0 C0.70700306 2.88437779 -0.65941363 4.87219421 -3 7 C-3.33 6.34 -3.66 5.68 -4 5 C-2.71937515 3.2925002 -1.38232443 1.62626404 0 0 Z " fill="#A9A9A9" transform="translate(342,574)"/>
<path d="M0 0 C0.66 0.33 1.32 0.66 2 1 C-0.31 3.31 -2.62 5.62 -5 8 C-5 5 -5 5 -2.5 2.3125 C-1.675 1.549375 -0.85 0.78625 0 0 Z " fill="#A7A7A7" transform="translate(166,573)"/>
</svg>
